<svg width="1200" height="630" viewBox="0 0 1200 630" fill="none" xmlns="http://www.w3.org/2000/svg">
  <rect width="1200" height="630" rx="32" fill="#FAF8F3"/>
  <circle cx="210" cy="170" r="70" fill="#E8D9C5"/>
  <ellipse cx="240" cy="370" rx="140" ry="110" fill="#D8A47F"/>
  <circle cx="180" cy="155" r="10" fill="#222222"/>
  <circle cx="245" cy="155" r="10" fill="#222222"/>
  <ellipse cx="212" cy="188" rx="22" ry="16" fill="#B85C38"/>
  <path d="M145 105C155 50 205 35 228 92" stroke="#A86A49" stroke-width="18" stroke-linecap="round"/>
  <path d="M262 104C275 45 325 42 338 98" stroke="#A86A49" stroke-width="18" stroke-linecap="round"/>
  <path d="M356 345C460 230 645 220 760 300C820 342 842 420 792 470C745 516 650 498 590 450C540 410 514 410 468 430" stroke="#FF8A5B" stroke-width="26" stroke-linecap="round"/>
  <circle cx="632" cy="314" r="8" fill="#7A3A2A"/>
  <path d="M705 292C738 308 748 340 732 370" stroke="#7A3A2A" stroke-width="10" stroke-linecap="round"/>
  <path d="M785 316L860 250" stroke="#FF8A5B" stroke-width="20" stroke-linecap="round"/>
  <path d="M800 345L894 308" stroke="#FF8A5B" stroke-width="20" stroke-linecap="round"/>
  <path d="M792 377L890 390" stroke="#FF8A5B" stroke-width="20" stroke-linecap="round"/>
  <rect x="845" y="95" width="220" height="150" rx="20" fill="#FFFFFF" stroke="#E8E2D8" stroke-width="4"/>
  <path d="M885 140H1025" stroke="#B85C38" stroke-width="14" stroke-linecap="round"/>
  <path d="M885 180H980" stroke="#D39A7A" stroke-width="14" stroke-linecap="round"/>
  <path d="M885 220H1005" stroke="#D39A7A" stroke-width="14" stroke-linecap="round"/>
  <text x="845" y="560" fill="#222222" font-size="54" font-family="-apple-system, BlinkMacSystemFont, 'Segoe UI', sans-serif" font-weight="700">狗子修虾手记</text>
  <text x="845" y="608" fill="#666666" font-size="26" font-family="-apple-system, BlinkMacSystemFont, 'Segoe UI', sans-serif">把每天踩过的坑，修完以后写下来。</text>
</svg>
