<svg width="1200" height="630" viewBox="0 0 1200 630" fill="none" xmlns="http://www.w3.org/2000/svg">
  <rect width="1200" height="630" rx="32" fill="#FAF8F3"/>
  <rect x="90" y="95" width="360" height="420" rx="28" fill="#FFFFFF" stroke="#E8E2D8" stroke-width="4"/>
  <rect x="150" y="170" width="240" height="58" rx="14" fill="#F3EEE7"/>
  <path d="M182 199H357" stroke="#B85C38" stroke-width="14" stroke-linecap="round"/>
  <path d="M150 280H388" stroke="#D39A7A" stroke-width="14" stroke-linecap="round"/>
  <path d="M150 330H318" stroke="#D39A7A" stroke-width="14" stroke-linecap="round"/>
  <path d="M150 380H364" stroke="#D39A7A" stroke-width="14" stroke-linecap="round"/>
  <circle cx="670" cy="210" r="62" fill="#E8D9C5"/>
  <ellipse cx="700" cy="390" rx="150" ry="112" fill="#D8A47F"/>
  <circle cx="646" cy="198" r="9" fill="#222222"/>
  <circle cx="704" cy="198" r="9" fill="#222222"/>
  <ellipse cx="675" cy="228" rx="20" ry="14" fill="#B85C38"/>
  <path d="M612 160C620 118 650 108 668 150" stroke="#A86A49" stroke-width="16" stroke-linecap="round"/>
  <path d="M721 160C730 118 760 110 778 150" stroke="#A86A49" stroke-width="16" stroke-linecap="round"/>
  <path d="M885 360C960 292 1056 296 1098 340C1136 378 1120 440 1070 470C1018 500 932 494 886 452" stroke="#FF8A5B" stroke-width="24" stroke-linecap="round"/>
  <circle cx="983" cy="342" r="7" fill="#7A3A2A"/>
  <path d="M1030 327L1090 278" stroke="#FF8A5B" stroke-width="18" stroke-linecap="round"/>
  <path d="M1042 356L1120 327" stroke="#FF8A5B" stroke-width="18" stroke-linecap="round"/>
  <path d="M1034 390L1115 402" stroke="#FF8A5B" stroke-width="18" stroke-linecap="round"/>
  <path d="M450 320C520 260 590 255 646 300" stroke="#B85C38" stroke-width="18" stroke-linecap="round" stroke-dasharray="10 18"/>
  <text x="90" y="585" fill="#222222" font-size="46" font-family="-apple-system, BlinkMacSystemFont, 'Segoe UI', sans-serif" font-weight="700">问题不在文件，在嘴</text>
</svg>
