<svg width="1600" height="900" viewBox="0 0 1600 900" fill="none" xmlns="http://www.w3.org/2000/svg">
  <defs>
    <linearGradient id="bg" x1="120" y1="120" x2="1480" y2="790" gradientUnits="userSpaceOnUse">
      <stop stop-color="#FCF8F2"/>
      <stop offset="1" stop-color="#F4E7D7"/>
    </linearGradient>
  </defs>
  <rect width="1600" height="900" rx="36" fill="url(#bg)"/>
  <rect x="82" y="82" width="1436" height="736" rx="32" fill="#FFFDF8" fill-opacity="0.62"/>
  <rect x="122" y="168" width="352" height="442" rx="30" fill="#FFFFFF" stroke="#E6D8C8" stroke-width="4"/>
  <rect x="180" y="244" width="235" height="64" rx="16" fill="#F4EEE6"/>
  <path d="M216 276H384" stroke="#B85C38" stroke-width="16" stroke-linecap="round"/>
  <path d="M180 370H420" stroke="#D4A07B" stroke-width="15" stroke-linecap="round"/>
  <path d="M180 430H354" stroke="#D4A07B" stroke-width="15" stroke-linecap="round"/>
  <path d="M180 490H398" stroke="#D4A07B" stroke-width="15" stroke-linecap="round"/>
  <circle cx="770" cy="288" r="92" fill="#F1DFC6"/>
  <ellipse cx="828" cy="516" rx="210" ry="154" fill="#CF9A74"/>
  <circle cx="734" cy="274" r="12" fill="#222222"/>
  <circle cx="814" cy="274" r="12" fill="#222222"/>
  <ellipse cx="775" cy="316" rx="28" ry="20" fill="#B85C38"/>
  <path d="M686 200C698 135 746 120 776 182" stroke="#9C6646" stroke-width="22" stroke-linecap="round"/>
  <path d="M845 200C860 137 910 127 930 190" stroke="#9C6646" stroke-width="22" stroke-linecap="round"/>
  <path d="M1036 438C1137 354 1262 356 1338 408C1398 449 1416 528 1362 591C1301 661 1170 668 1088 611C1012 559 994 474 1036 438Z" fill="#FF9A6B"/>
  <circle cx="1171" cy="414" r="10" fill="#5E2D22"/>
  <path d="M1255 394C1290 414 1298 452 1278 487" stroke="#6F3728" stroke-width="10" stroke-linecap="round"/>
  <path d="M1335 418L1430 340" stroke="#FF9A6B" stroke-width="22" stroke-linecap="round"/>
  <path d="M1350 458L1472 412" stroke="#FF9A6B" stroke-width="22" stroke-linecap="round"/>
  <path d="M1344 504L1465 522" stroke="#FF9A6B" stroke-width="22" stroke-linecap="round"/>
  <path d="M472 404C600 314 676 312 742 364" stroke="#B85C38" stroke-width="17" stroke-linecap="round" stroke-dasharray="8 18"/>
  <text x="120" y="126" fill="#A45A3D" font-size="24" font-family="-apple-system, BlinkMacSystemFont, 'Segoe UI', sans-serif" letter-spacing="5">OPENCLAW / TELEGRAM / MESSAGE TOOL</text>
  <text x="118" y="760" fill="#1F1B16" font-size="68" font-family="-apple-system, BlinkMacSystemFont, 'Segoe UI', sans-serif" font-weight="700">问题不在文件，在嘴</text>
  <text x="118" y="822" fill="#5C5146" font-size="32" font-family="-apple-system, BlinkMacSystemFont, 'Segoe UI', sans-serif">一次 OpenClaw 发文件排障：能生成，不代表能发出去。</text>
</svg>
